<svg xmlns="http://www.w3.org/2000/svg" width="32" height="32" viewBox="0 0 32 32">
  <rect width="32" height="32" rx="6" fill="#0d9488"/>
  <g transform="translate(4, 2)" stroke="white" stroke-width="1.8" fill="none" stroke-linecap="round" stroke-linejoin="round">
    <path d="M13 8c0-2.76-2.46-5-5.5-5S2 5.24 2 8h2l1-1 1 1h4"/>
    <path d="M13 7.14A5.82 5.82 0 0 1 16.5 6c3.04 0 5.5 2.24 5.5 5h-3l-1-1-1 1h-3"/>
    <path d="M5.89 13.9A6 6 0 0 0 11 11.5a6 6 0 0 0 5.11 2.4M8 22v-8.2a6 6 0 0 0 8 0V22"/>
  </g>
</svg>
